<?xml version="1.0" encoding="UTF-8" standalone="no"?>
<!DOCTYPE svg PUBLIC "-//W3C//DTD SVG 1.1//EN"
 "http://www.w3.org/Graphics/SVG/1.1/DTD/svg11.dtd">
<!-- Generated by graphviz version 12.1.2 (20240928.0832)
 -->
<!-- Pages: 1 -->
<svg width="416pt" height="362pt"
 viewBox="0.00 0.00 415.98 361.56" xmlns="http://www.w3.org/2000/svg" xmlns:xlink="http://www.w3.org/1999/xlink">
<g id="graph0" class="graph" transform="scale(1 1) rotate(0) translate(4 357.56)">
<polygon fill="white" stroke="none" points="-4,4 -4,-357.56 411.98,-357.56 411.98,4 -4,4"/>
<!-- bi -->
<g id="node1" class="node">
<title>bi</title>
<ellipse fill="black" stroke="black" cx="1.8" cy="-83.42" rx="1.8" ry="1.8"/>
</g>
<!-- bb -->
<g id="node3" class="node">
<title>bb</title>
<ellipse fill="none" stroke="black" cx="87.45" cy="-83.42" rx="46.85" ry="46.85"/>
<text text-anchor="middle" x="87.45" y="-94.87" font-family="Times,serif" font-size="14.00">Wait for</text>
<text text-anchor="middle" x="87.45" y="-78.37" font-family="Times,serif" font-size="14.00">call from</text>
<text text-anchor="middle" x="87.45" y="-61.87" font-family="Times,serif" font-size="14.00">below</text>
</g>
<!-- bi&#45;&gt;bb -->
<g id="edge1" class="edge">
<title>bi&#45;&gt;bb</title>
<path fill="none" stroke="black" stroke-dasharray="5,2" d="M3.98,-83.42C7.3,-83.42 17.21,-83.42 29.08,-83.42"/>
<polygon fill="black" stroke="black" points="28.87,-86.92 38.87,-83.42 28.87,-79.92 28.87,-86.92"/>
</g>
<!-- ba -->
<g id="node2" class="node">
<title>ba</title>
<ellipse fill="none" stroke="black" cx="361.14" cy="-81.42" rx="46.85" ry="46.85"/>
<text text-anchor="middle" x="361.14" y="-92.87" font-family="Times,serif" font-size="14.00">Wait for</text>
<text text-anchor="middle" x="361.14" y="-76.37" font-family="Times,serif" font-size="14.00">call from</text>
<text text-anchor="middle" x="361.14" y="-59.87" font-family="Times,serif" font-size="14.00">above</text>
</g>
<!-- ba&#45;&gt;bb -->
<g id="edge2" class="edge">
<title>ba&#45;&gt;bb</title>
<path fill="none" stroke="black" d="M332.06,-44.34C322.04,-33.95 309.83,-23.98 296.29,-18.42 237.08,5.87 211.31,6.33 152.29,-18.42 141.79,-22.83 132.14,-29.9 123.7,-37.78"/>
<polygon fill="black" stroke="black" points="121.3,-35.23 116.75,-44.8 126.27,-40.16 121.3,-35.23"/>
<text text-anchor="middle" x="224.29" y="-71.12" font-family="Times,serif" font-size="14.00">rdt_send(data)</text>
<text text-anchor="middle" x="224.29" y="-54.62" font-family="Times,serif" font-size="14.00">&#45;&#45;&#45;&#45;&#45;&#45;&#45;&#45;&#45;&#45;&#45;&#45;&#45;&#45;&#45;&#45;&#45;&#45;&#45;&#45;&#45;&#45;&#45;&#45;&#45;&#45;&#45;&#45;&#45;&#45;&#45;&#45;</text>
<text text-anchor="middle" x="224.29" y="-38.12" font-family="Times,serif" font-size="14.00">packet=make_pkt(data)</text>
<text text-anchor="middle" x="224.29" y="-21.62" font-family="Times,serif" font-size="14.00">udt_send(packet)</text>
</g>
<!-- bb&#45;&gt;ba -->
<g id="edge3" class="edge">
<title>bb&#45;&gt;ba</title>
<path fill="none" stroke="black" d="M134.68,-84.39C176.81,-85.1 240.74,-85.73 296.29,-84.42 298.45,-84.37 300.66,-84.31 302.89,-84.24"/>
<polygon fill="black" stroke="black" points="302.73,-87.75 312.6,-83.9 302.48,-80.76 302.73,-87.75"/>
<text text-anchor="middle" x="224.29" y="-137.88" font-family="Times,serif" font-size="14.00">rdt_rcv(packet)</text>
<text text-anchor="middle" x="224.29" y="-121.38" font-family="Times,serif" font-size="14.00">&#45;&#45;&#45;&#45;&#45;&#45;&#45;&#45;&#45;&#45;&#45;&#45;&#45;&#45;&#45;&#45;&#45;&#45;&#45;&#45;&#45;&#45;&#45;&#45;&#45;&#45;&#45;&#45;&#45;&#45;&#45;&#45;</text>
<text text-anchor="middle" x="224.29" y="-104.88" font-family="Times,serif" font-size="14.00">extract(packet,data)</text>
<text text-anchor="middle" x="224.29" y="-88.38" font-family="Times,serif" font-size="14.00">deliver_data(data)</text>
</g>
<!-- ai -->
<g id="node4" class="node">
<title>ai</title>
<ellipse fill="black" stroke="black" cx="1.8" cy="-228.42" rx="1.8" ry="1.8"/>
</g>
<!-- aa -->
<g id="node5" class="node">
<title>aa</title>
<ellipse fill="none" stroke="black" cx="87.45" cy="-228.42" rx="46.85" ry="46.85"/>
<text text-anchor="middle" x="87.45" y="-239.87" font-family="Times,serif" font-size="14.00">Wait for</text>
<text text-anchor="middle" x="87.45" y="-223.37" font-family="Times,serif" font-size="14.00">call from</text>
<text text-anchor="middle" x="87.45" y="-206.87" font-family="Times,serif" font-size="14.00">above</text>
</g>
<!-- ai&#45;&gt;aa -->
<g id="edge4" class="edge">
<title>ai&#45;&gt;aa</title>
<path fill="none" stroke="black" stroke-dasharray="5,2" d="M3.98,-228.42C7.3,-228.42 17.21,-228.42 29.08,-228.42"/>
<polygon fill="black" stroke="black" points="28.87,-231.92 38.87,-228.42 28.87,-224.92 28.87,-231.92"/>
</g>
<!-- ab -->
<g id="node6" class="node">
<title>ab</title>
<ellipse fill="none" stroke="black" cx="361.14" cy="-231.42" rx="46.85" ry="46.85"/>
<text text-anchor="middle" x="361.14" y="-242.87" font-family="Times,serif" font-size="14.00">Wait for</text>
<text text-anchor="middle" x="361.14" y="-226.37" font-family="Times,serif" font-size="14.00">call from</text>
<text text-anchor="middle" x="361.14" y="-209.87" font-family="Times,serif" font-size="14.00">below</text>
</g>
<!-- aa&#45;&gt;ab -->
<g id="edge5" class="edge">
<title>aa&#45;&gt;ab</title>
<path fill="none" stroke="black" d="M123.5,-258.8C132.34,-264.8 142.21,-270.23 152.29,-273.42 213.3,-292.76 234.98,-291.78 296.29,-273.42 302.25,-271.64 308.17,-269.1 313.86,-266.14"/>
<polygon fill="black" stroke="black" points="315.56,-269.2 322.5,-261.19 312.09,-263.12 315.56,-269.2"/>
<text text-anchor="middle" x="224.29" y="-340.26" font-family="Times,serif" font-size="14.00">rdt_send(data)</text>
<text text-anchor="middle" x="224.29" y="-323.76" font-family="Times,serif" font-size="14.00">&#45;&#45;&#45;&#45;&#45;&#45;&#45;&#45;&#45;&#45;&#45;&#45;&#45;&#45;&#45;&#45;&#45;&#45;&#45;&#45;&#45;&#45;&#45;&#45;&#45;&#45;&#45;&#45;&#45;&#45;&#45;&#45;</text>
<text text-anchor="middle" x="224.29" y="-307.26" font-family="Times,serif" font-size="14.00">packet=make_pkt(data)</text>
<text text-anchor="middle" x="224.29" y="-290.76" font-family="Times,serif" font-size="14.00">udt_send(packet)</text>
</g>
<!-- ab&#45;&gt;aa -->
<g id="edge6" class="edge">
<title>ab&#45;&gt;aa</title>
<path fill="none" stroke="black" d="M319.06,-210.48C311.65,-207.56 303.87,-205.01 296.29,-203.42 233.65,-190.29 215.18,-191.55 152.29,-203.42 148.72,-204.1 145.1,-204.96 141.48,-205.97"/>
<polygon fill="black" stroke="black" points="140.66,-202.56 132.17,-208.9 142.76,-209.24 140.66,-202.56"/>
<text text-anchor="middle" x="224.29" y="-256.12" font-family="Times,serif" font-size="14.00">rdt_rcv(packet)</text>
<text text-anchor="middle" x="224.29" y="-239.62" font-family="Times,serif" font-size="14.00">&#45;&#45;&#45;&#45;&#45;&#45;&#45;&#45;&#45;&#45;&#45;&#45;&#45;&#45;&#45;&#45;&#45;&#45;&#45;&#45;&#45;&#45;&#45;&#45;&#45;&#45;&#45;&#45;&#45;&#45;&#45;&#45;</text>
<text text-anchor="middle" x="224.29" y="-223.12" font-family="Times,serif" font-size="14.00">extract(packet,data)</text>
<text text-anchor="middle" x="224.29" y="-206.62" font-family="Times,serif" font-size="14.00">deliver_data(data)</text>
</g>
</g>
</svg>
